<?xml version="1.0" encoding="UTF-8"?>
<svg xmlns="http://www.w3.org/2000/svg" viewBox="0 0 33.18 32.69">
  <defs>
    <style>
      .cls-1 {
        fill: #d1d1d1;
      }

      .cls-2 {
        fill: none;
        isolation: isolate;
      }

      .cls-3 {
        fill: #939393;
        mix-blend-mode: multiply;
        opacity: .5;
      }
    </style>
  </defs>
  <g class="cls-2">
    <g id="Layer_2" data-name="Layer 2">
      <g id="OBJECTS">
        <g>
          <path class="cls-1" d="m30.39,3.13C27.22-.2,22.1-.97,18.11,1.3c-1.39.79-2.5,1.84-3.34,3.04-3.18-1.49-7.13-1.01-9.9,1.66-2.75,2.65-3.46,6.86-1.76,10.29.01.03.03.05.04.08,1.17,2.29,1.2,5-.02,7.26L.3,28.84c-1.01,1.87.7,4.05,2.76,3.5l8.38-2.23c2.1-.56,4.35-.22,6.16.98,3.35,2.23,7.88,2.17,11.2-.46,4.14-3.27,4.85-9.28,1.58-13.42-.02-.02-.04-.05-.06-.07,3.69-3.8,3.89-9.98.05-14.02Z"/>
          <path class="cls-3" d="m30.15,25.64c-3.3,2.61-7.79,2.68-11.13.5-1.84-1.2-4.1-1.59-6.23-1.03l-8.38,2.23c-.39.1-.76.11-1.11.04-1.2-.24-2.42.37-3,1.45-1.01,1.87.7,4.05,2.76,3.5l8.38-2.23c2.13-.57,4.38-.18,6.23,1.03,3.34,2.18,7.83,2.1,11.13-.5,2.42-1.91,3.66-4.75,3.63-7.6-.58.97-1.34,1.87-2.28,2.61Z"/>
        </g>
      </g>
    </g>
  </g>
</svg>