<?xml version="1.0" encoding="UTF-8"?>
<svg xmlns="http://www.w3.org/2000/svg" viewBox="0 0 28.72 24">
  <defs>
    <style>
      .cls-1 {
        fill: #d1d1d1;
      }

      .cls-2 {
        fill: none;
        isolation: isolate;
      }

      .cls-3 {
        fill: #939393;
        mix-blend-mode: multiply;
        opacity: .5;
      }
    </style>
  </defs>
  <g class="cls-2">
    <g id="Layer_2" data-name="Layer 2">
      <g id="OBJECTS">
        <g>
          <path class="cls-1" d="m28.72,11.17c.08-3.2-2.06-6.11-5.15-6.96-1.08-.3-2.14-.33-3.14-.15C19.59,1.76,17.41.05,14.72,0c-2.66-.05-5.09,1.68-5.94,4.2,0,.02-.01.04-.02.06-.55,1.71-1.87,3.06-3.59,3.57l-3.96,1.18c-1.42.42-1.65,2.35-.36,3.09l5.23,3.03c1.31.76,2.25,2.03,2.55,3.52.55,2.75,2.82,4.95,5.75,5.3,3.65.43,6.96-2.18,7.39-5.83,0-.02,0-.04,0-.06,3.69-.05,6.83-3,6.94-6.88Z"/>
          <path class="cls-3" d="m17.5,22.15c-2.91-.34-5.16-2.52-5.74-5.24-.32-1.5-1.24-2.81-2.56-3.58l-5.23-3.03c-.24-.14-.43-.32-.57-.52-.48-.71-1.37-1.01-2.19-.77-1.42.42-1.65,2.35-.36,3.09l5.23,3.03c1.33.77,2.25,2.07,2.56,3.58.57,2.72,2.82,4.9,5.74,5.24,2.13.25,4.14-.54,5.54-1.96-.77.19-1.58.26-2.41.16Z"/>
        </g>
      </g>
    </g>
  </g>
</svg>