<?xml version="1.0" encoding="UTF-8"?>
<svg xmlns="http://www.w3.org/2000/svg" viewBox="0 0 74.47 111.26">
  <defs>
    <style>
      .cls-1 {
        fill: #fff;
        mix-blend-mode: soft-light;
      }

      .cls-1, .cls-2 {
        opacity: .5;
      }

      .cls-3 {
        fill: #2d373a;
      }

      .cls-4 {
        fill: none;
        isolation: isolate;
      }

      .cls-5 {
        fill: #ffcd4f;
      }

      .cls-6 {
        fill: #d8c9ad;
      }

      .cls-2 {
        fill: #939393;
        mix-blend-mode: multiply;
      }

      .cls-7 {
        fill: #ff1e45;
      }
    </style>
  </defs>
  <g class="cls-4">
    <g id="Layer_2" data-name="Layer 2">
      <g id="OBJECTS">
        <g>
          <path class="cls-6" d="m37.02,31.74c-.26,0-.49-.19-.54-.46-.07-.43-1.56-10.53,8.18-20.28.21-.21.56-.21.77,0,.21.21.21.56,0,.77-9.36,9.36-7.9,19.24-7.88,19.34.05.3-.15.58-.45.62-.03,0-.06,0-.09,0Z"/>
          <path class="cls-3" d="m29,31.02h16.48c3.28,0,5.93,2.66,5.93,5.93v5.6h-28.35v-5.6c0-3.28,2.66-5.93,5.93-5.93Z"/>
          <path class="cls-2" d="m51.41,37.06c-4.37-1.8-9.15-2.8-14.17-2.8s-9.8,1-14.17,2.8v5.49h28.35v-5.49Z"/>
          <path class="cls-5" d="m49.58,5.18c-.05-.15-.25-.14-.29.01-.22.85-.7,1.62-1.01,2.06-.08.12-.27.06-.27-.08-.07-2.98-2.47-6.35-3.04-7.11-.06-.08-.18-.08-.24,0-.57.76-2.97,4.13-3.04,7.11,0,.14-.19.2-.27.08-.31-.43-.79-1.21-1.01-2.06-.04-.15-.24-.16-.29-.01-.56,1.81-1.77,7.52,4.71,8.4.02,0,.03,0,.05,0,6.48-.89,5.26-6.59,4.71-8.4Z"/>
          <path class="cls-7" d="m46.82,10.41c-.04-1.85-1.54-3.95-1.89-4.42-.04-.05-.11-.05-.15,0-.35.47-1.85,2.57-1.89,4.42,0,.04-.3,2.31,1.96,2.31s1.97-2.26,1.96-2.31Z"/>
          <circle class="cls-3" cx="37.24" cy="74.02" r="37.24"/>
          <path class="cls-2" d="m55.86,41.78c3.17,5.48,5,11.84,5,18.63,0,20.57-16.67,37.24-37.24,37.24-6.79,0-13.15-1.83-18.63-5,6.44,11.12,18.46,18.61,32.24,18.61,20.57,0,37.24-16.67,37.24-37.24,0-13.78-7.49-25.8-18.61-32.24Z"/>
          <path class="cls-1" d="m13.25,58.98c0,1.88.55,3.63,1.49,5.1,1.47.94,3.22,1.49,5.1,1.49,5.23,0,9.46-4.24,9.46-9.46,0-1.88-.55-3.63-1.49-5.1-1.47-.94-3.22-1.49-5.1-1.49-5.23,0-9.46,4.24-9.46,9.46Z"/>
        </g>
      </g>
    </g>
  </g>
</svg>