<?xml version="1.0" encoding="UTF-8"?>
<svg xmlns="http://www.w3.org/2000/svg" viewBox="0 0 104.29 67.49">
  <defs>
    <style>
      .cls-1 {
        fill: #2d373a;
      }

      .cls-2 {
        fill: none;
        isolation: isolate;
      }

      .cls-3 {
        fill: #ffcd4f;
      }

      .cls-4 {
        fill: #bbb;
      }

      .cls-5 {
        fill: #d8c9ad;
      }

      .cls-6 {
        fill: #939393;
        mix-blend-mode: multiply;
        opacity: .5;
      }

      .cls-7 {
        fill: #ff1e45;
      }
    </style>
  </defs>
  <g class="cls-2">
    <g id="Layer_2" data-name="Layer 2">
      <g id="OBJECTS">
        <g id="canon-tank">
          <path class="cls-4" d="m1.73,44.77c-1.37.5-2.07,2.01-1.57,3.38l3.08,8.44c.5,1.37,2.01,2.07,3.38,1.57l3.05-1.11-4.88-13.39-3.05,1.11Z"/>
          <path class="cls-5" d="m14.29,29.37c.2,0,.37-.14.4-.34.05-.32,1.17-7.87-6.12-15.16-.16-.16-.42-.16-.57,0-.16.16-.16.42,0,.57,7,7,5.9,14.38,5.89,14.46-.04.22.12.43.34.47.02,0,.04,0,.07,0Z"/>
          <path class="cls-3" d="m4.9,9.51c.03-.11.19-.1.22.01.16.64.52,1.21.76,1.54.06.09.2.05.2-.06.05-2.23,1.85-4.75,2.27-5.31.05-.06.13-.06.18,0,.42.57,2.22,3.09,2.27,5.31,0,.11.14.15.2.06.23-.32.59-.9.76-1.54.03-.11.18-.12.22-.01.42,1.35,1.33,5.62-3.52,6.28-.01,0-.02,0-.04,0-4.84-.66-3.93-4.93-3.52-6.28Z"/>
          <path class="cls-7" d="m6.96,13.43c.03-1.38,1.15-2.95,1.41-3.3.03-.04.08-.04.11,0,.26.35,1.38,1.92,1.41,3.3,0,.03.23,1.72-1.47,1.72s-1.47-1.69-1.47-1.72Z"/>
          <path class="cls-1" d="m19.1,19.92C6.37,24.56-.18,38.64,4.46,51.36c4.64,12.72,18.72,19.28,31.44,14.64h0c1.5-.55,2.9-1.23,4.22-2.02l61.56-30.38-5.69-15.61-5.69-15.61L23.63,18.75c-1.52.24-3.04.62-4.54,1.17Z"/>
          <path class="cls-6" d="m46.82,48.65c-1.32.79-2.72,1.48-4.22,2.02h0c-12.72,4.64-26.8-1.91-31.44-14.64-1.2-3.29-1.65-6.67-1.43-9.96-6.2,6.54-8.55,16.25-5.26,25.29,4.64,12.72,18.72,19.28,31.44,14.64h0c1.5-.55,2.9-1.23,4.22-2.02l61.56-30.38-2.77-7.61-52.1,22.66Z"/>
          <rect class="cls-4" x="93.32" y="-.92" width="5.35" height="37.81" rx="2.45" ry="2.45" transform="translate(-.35 33.97) rotate(-20.03)"/>
          <path class="cls-6" d="m104.07,32.31L92.95,1.82h0s8.08,22.15,8.08,22.15c.51,1.39-.21,2.93-1.6,3.43-1.39.51-2.92-.21-3.43-1.6l3.04,8.34c.51,1.39,2.04,2.1,3.43,1.6,1.39-.51,2.1-2.04,1.6-3.43Z"/>
        </g>
      </g>
    </g>
  </g>
</svg>