<?xml version="1.0" encoding="UTF-8"?>
<!DOCTYPE svg PUBLIC "-//W3C//DTD SVG 1.1//EN" "http://www.w3.org/Graphics/SVG/1.1/DTD/svg11.dtd">
<!-- Creator: CorelDRAW 2019 (64-Bit) -->
<svg xmlns="http://www.w3.org/2000/svg" xml:space="preserve" width="297mm" height="210mm" version="1.1" style="shape-rendering:geometricPrecision; text-rendering:geometricPrecision; image-rendering:optimizeQuality; fill-rule:evenodd; clip-rule:evenodd"
viewBox="0 0 29700 21000"
 xmlns:xlink="http://www.w3.org/1999/xlink"
 xmlns:xodm="http://www.corel.com/coreldraw/odm/2003">
 <defs>
  <style type="text/css">
   <![CDATA[
    .fil0 {fill:#F7FFFF}
   ]]>
  </style>
 </defs>
 <g id="Layer_x0020_1">
  <metadata id="CorelCorpID_0Corel-Layer"/>
  <path class="fil0" d="M-23951.19 8733.05c-88.57,-40.82 -142.67,-90.21 -255.64,-131.2 -494.4,-179.37 -1067.2,19.01 -1316.64,443.47 -136.45,232.19 -128.41,303.83 -178.74,597.76 -497.23,78.51 -810.69,179.13 -1159.64,506.21 -79.87,74.87 -203.54,189.22 -276.66,291.22 -321.51,448.52 -499.05,1126.6 -285.97,1776.15 334.24,1018.91 1392.58,1587.26 2463.93,1273.02 163.02,-47.81 270.66,-124.21 404.73,-170.74 190.27,1216.92 1522.87,2025.28 2802.48,1484.46 369.7,-156.26 613.35,-405.8 850.3,-709.69 137.71,37.11 242.56,147.28 548.84,155.55 204.09,5.51 410.69,-43.92 564.61,-132.68 270.07,-155.76 523.81,-427.28 567.23,-853.87 888.82,-186.11 1660.8,-1062.09 1513.54,-2186.55 -69.8,-533.05 -313.49,-886.41 -658.21,-1214.7 -412.12,-392.48 -874.5,-462.06 -1400.06,-487.74 -47.72,-73.34 -183.93,-464.59 -364.17,-682.79 -246.48,-298.39 -415.81,-470.8 -800.92,-675.13 -657.65,-348.93 -1418.07,-337.39 -2075.81,-51.09 -356.29,155.08 -647.81,420.83 -882.8,706.04l-60.4 62.3z"/>
 </g>
</svg>
