<?xml version="1.0" encoding="UTF-8"?>
<svg xmlns="http://www.w3.org/2000/svg" viewBox="0 0 52.92 50.76">
  <defs>
    <style>
      .cls-1 {
        fill: #2d373a;
      }

      .cls-2 {
        fill: none;
        isolation: isolate;
      }

      .cls-3 {
        fill: #bbb;
      }

      .cls-4 {
        fill: #939393;
        mix-blend-mode: multiply;
        opacity: .5;
      }
    </style>
  </defs>
  <g class="cls-2">
    <g id="Layer_2" data-name="Layer 2">
      <g id="OBJECTS">
        <g>
          <path class="cls-3" d="m52.74,45.25L39.89,3.02c-.55-1.79-2.2-3.02-4.08-3.02h-18.69c-1.88,0-3.53,1.23-4.08,3.02L.19,45.25c-.83,2.74,1.22,5.5,4.08,5.5h44.4c2.86,0,4.91-2.76,4.08-5.5Z"/>
          <path class="cls-4" d="m52.74,45.25L39.89,3.02c-.55-1.79-2.2-3.02-4.08-3.02h-7.28l5.68,18.65c3.51,11.52-5.11,23.16-17.16,23.16H1.24l-1.05,3.45c-.83,2.74,1.22,5.5,4.08,5.5h44.4c2.86,0,4.91-2.76,4.08-5.5Z"/>
          <g>
            <circle class="cls-1" cx="26.46" cy="28.46" r="12.27"/>
            <path class="cls-4" d="m26.46,34.22c-5.65,0-10.39-3.82-11.82-9.02-.29,1.04-.45,2.13-.45,3.26,0,6.78,5.5,12.27,12.27,12.27s12.27-5.5,12.27-12.27c0-1.13-.17-2.22-.45-3.26-1.43,5.19-6.17,9.02-11.82,9.02Z"/>
          </g>
        </g>
      </g>
    </g>
  </g>
</svg>